<svg width="20" height="18" viewBox="0 0 20 18" fill="none" xmlns="http://www.w3.org/2000/svg">
<path fill-rule="evenodd" clip-rule="evenodd" d="M6.95711 0.292893C6.56658 -0.0976311 5.93342 -0.0976311 5.54289 0.292893L0.292892 5.54289C-0.0976315 5.93342 -0.0976315 6.56658 0.292892 6.95711L5.54289 12.2071C5.93342 12.5976 6.56658 12.5976 6.95711 12.2071C7.34763 11.8166 7.34763 11.1834 6.95711 10.7929L3.41422 7.25H13.75C16.0972 7.25 18 9.15279 18 11.5C18 13.8472 16.0972 15.75 13.75 15.75H10.75C10.1977 15.75 9.75 16.1977 9.75 16.75C9.75 17.3023 10.1977 17.75 10.75 17.75H13.75C17.2018 17.75 20 14.9518 20 11.5C20 8.04822 17.2018 5.25 13.75 5.25H3.41422L6.95711 1.70711C7.34763 1.31658 7.34763 0.683417 6.95711 0.292893Z" fill="#1E212C"/>
</svg>
