<svg width="216" height="225" viewBox="0 0 216 225" fill="none" xmlns="http://www.w3.org/2000/svg">
<g opacity="0.8" clip-path="url(#clip0_1_1277)">
<path d="M34.0831 163.335C35.2504 164.232 35.4509 165.783 34.5508 166.954C33.6508 168.125 32.1003 168.331 30.9331 167.434C29.7658 166.537 29.5653 164.986 30.4653 163.814C31.3654 162.643 33.0131 162.512 34.0831 163.335Z" fill="#FFCF2D"/>
<path d="M47.5084 145.865C48.6757 146.762 48.8761 148.313 47.9761 149.484C47.0761 150.655 45.5256 150.861 44.3584 149.964C43.1911 149.067 42.9906 147.516 43.8906 146.345C44.7157 145.271 46.4384 145.043 47.5084 145.865Z" fill="#FFCF2D"/>
<path d="M60.8584 128.493C62.0257 129.39 62.2262 130.941 61.3262 132.112C60.4262 133.283 58.8757 133.489 57.7084 132.592C56.5411 131.695 56.3407 130.144 57.2407 128.973C58.1407 127.802 59.7884 127.671 60.8584 128.493Z" fill="#FFCF2D"/>
<path d="M74.2837 111.023C75.451 111.92 75.6515 113.471 74.7515 114.642C73.8514 115.813 72.301 116.019 71.1337 115.122C69.9664 114.225 69.766 112.674 70.666 111.503C71.566 110.332 73.2137 110.201 74.2837 111.023Z" fill="#FFCF2D"/>
<path d="M87.709 93.553C88.8763 94.4501 89.0768 96.0012 88.1768 97.1724C87.2767 98.3435 85.7263 98.5491 84.559 97.6521C83.3917 96.7551 83.1912 95.2039 84.0913 94.0327C84.9163 92.9592 86.639 92.7307 87.709 93.553Z" fill="#FFCF2D"/>
<path d="M101.134 76.0831C102.302 76.9801 102.502 78.5312 101.602 79.7024C100.702 80.8736 99.1516 81.0792 97.9843 80.1821C96.817 79.2851 96.6165 77.7339 97.5166 76.5628C98.4166 75.3916 100.064 75.2608 101.134 76.0831Z" fill="#FFCF2D"/>
<path d="M114.484 58.7112C115.652 59.6083 115.852 61.1594 114.952 62.3306C114.052 63.5017 112.502 63.7073 111.334 62.8103C110.167 61.9133 109.967 60.3621 110.867 59.1909C111.767 58.0198 113.414 57.8889 114.484 58.7112Z" fill="#FFCF2D"/>
<path d="M127.91 41.2413C129.077 42.1383 129.277 43.6894 128.377 44.8606C127.477 46.0318 125.927 46.2374 124.76 45.3403C123.592 44.4433 123.392 42.8921 124.292 41.721C125.192 40.5498 126.84 40.419 127.91 41.2413Z" fill="#FFCF2D"/>
<path d="M141.335 23.7713C142.502 24.6683 142.703 26.2195 141.803 27.3906C140.903 28.5618 139.352 28.7674 138.185 27.8703C137.018 26.9733 136.817 25.4222 137.717 24.251C138.542 23.1774 140.265 22.949 141.335 23.7713Z" fill="#FFCF2D"/>
<path d="M48.5767 174.473C49.744 175.37 49.9444 176.921 49.0444 178.092C48.1444 179.263 46.5939 179.469 45.4267 178.572C44.2594 177.675 44.0589 176.124 44.9589 174.953C45.859 173.782 47.4094 173.576 48.5767 174.473Z" fill="#FFCF2D"/>
<path d="M62.0021 157.003C63.1694 157.9 63.3698 159.451 62.4698 160.622C61.5698 161.793 60.0193 161.999 58.852 161.102C57.6847 160.205 57.4843 158.654 58.3843 157.483C59.2093 156.409 60.8348 156.106 62.0021 157.003Z" fill="#FFCF2D"/>
<path d="M75.3521 139.631C76.5194 140.528 76.7198 142.079 75.8198 143.25C74.9198 144.421 73.3693 144.627 72.202 143.73C71.0348 142.833 70.8343 141.282 71.7343 140.111C72.6343 138.939 74.1848 138.734 75.3521 139.631Z" fill="#FFCF2D"/>
<path d="M88.7774 122.161C89.9447 123.058 90.1451 124.609 89.2451 125.781C88.3451 126.952 86.7946 127.157 85.6273 126.26C84.4601 125.363 84.2596 123.812 85.1596 122.641C86.0596 121.47 87.6101 121.264 88.7774 122.161Z" fill="#FFCF2D"/>
<path d="M102.203 104.691C103.37 105.588 103.57 107.139 102.67 108.311C101.77 109.482 100.22 109.687 99.0526 108.79C97.8854 107.893 97.6849 106.342 98.5849 105.171C99.4099 104.097 101.035 103.794 102.203 104.691Z" fill="#FFCF2D"/>
<path d="M115.628 87.2212C116.795 88.1183 116.996 89.6694 116.096 90.8406C115.196 92.0117 113.645 92.2173 112.478 91.3203C111.311 90.4233 111.11 88.8721 112.01 87.701C112.91 86.5298 114.461 86.3242 115.628 87.2212Z" fill="#FFCF2D"/>
<path d="M128.978 69.8494C130.145 70.7465 130.346 72.2976 129.446 73.4688C128.546 74.6399 126.995 74.8455 125.828 73.9485C124.661 73.0514 124.46 71.5003 125.36 70.3291C126.26 69.158 127.811 68.9524 128.978 69.8494Z" fill="#FFCF2D"/>
<path d="M142.403 52.3794C143.571 53.2765 143.771 54.8276 142.871 55.9988C141.971 57.17 140.421 57.3755 139.253 56.4785C138.086 55.5815 137.886 54.0303 138.786 52.8592C139.686 51.688 141.236 51.4824 142.403 52.3794Z" fill="#FFCF2D"/>
<path d="M155.829 34.9095C156.996 35.8065 157.196 37.3577 156.296 38.5288C155.396 39.7 153.846 39.9056 152.679 39.0085C151.511 38.1115 151.311 36.5603 152.211 35.3892C153.036 34.3156 154.661 34.0124 155.829 34.9095Z" fill="#FFCF2D"/>
<path d="M5.1928 141.133C6.36008 142.03 6.56053 143.581 5.66052 144.752C4.7605 145.924 3.21003 146.129 2.04274 145.232C0.875462 144.335 0.675012 142.784 1.57503 141.613C2.47504 140.442 4.02552 140.236 5.1928 141.133Z" fill="#FFCF2D"/>
<path d="M18.6181 123.663C19.7854 124.56 19.9858 126.111 19.0858 127.282C18.1858 128.454 16.6353 128.659 15.468 127.762C14.3008 126.865 14.1003 125.314 15.0003 124.143C15.8253 123.069 17.4508 122.766 18.6181 123.663Z" fill="#FFCF2D"/>
<path d="M31.9681 106.291C33.1354 107.188 33.3359 108.739 32.4358 109.911C31.5358 111.082 29.9854 111.287 28.8181 110.39C27.6508 109.493 27.5253 107.845 28.3504 106.771C29.2504 105.6 30.8008 105.394 31.9681 106.291Z" fill="#FFCF2D"/>
<path d="M45.3935 88.8213C46.5608 89.7184 46.7612 91.2695 45.8612 92.4407C44.9612 93.6118 43.4107 93.8174 42.2434 92.9204C41.0761 92.0234 40.9507 90.3746 41.7757 89.3011C42.6007 88.2275 44.2262 87.9243 45.3935 88.8213Z" fill="#FFCF2D"/>
<path d="M58.8188 71.3514C59.9861 72.2484 60.1865 73.7995 59.2865 74.9707C58.3865 76.1419 56.836 76.3475 55.6687 75.4504C54.5014 74.5534 54.301 73.0022 55.201 71.8311C56.026 70.7575 57.6515 70.4543 58.8188 71.3514Z" fill="#FFCF2D"/>
<path d="M72.2441 53.8816C73.4114 54.7787 73.6118 56.3298 72.7118 57.501C71.8118 58.6721 70.2613 58.8777 69.094 57.9807C67.9267 57.0837 67.7263 55.5325 68.6263 54.3614C69.5263 53.1902 71.0768 52.9846 72.2441 53.8816Z" fill="#FFCF2D"/>
<path d="M85.5941 36.5096C86.7614 37.4066 86.9618 38.9578 86.0618 40.1289C85.1618 41.3001 83.6113 41.5057 82.4441 40.6086C81.2768 39.7116 81.0763 38.1604 81.9763 36.9893C82.8763 35.8181 84.4268 35.6125 85.5941 36.5096Z" fill="#FFCF2D"/>
<path d="M99.0194 19.0396C100.187 19.9366 100.387 21.4878 99.4871 22.6589C98.5871 23.8301 97.0366 24.0357 95.8693 23.1387C94.7021 22.2416 94.5016 20.6905 95.4016 19.5193C96.3016 18.3482 97.8521 18.1426 99.0194 19.0396Z" fill="#FFCF2D"/>
<path d="M112.445 1.56964C113.612 2.46668 113.812 4.01782 112.912 5.18897C112.012 6.36013 110.462 6.56573 109.295 5.66869C108.127 4.77165 107.927 3.2205 108.827 2.04935C109.652 0.975787 111.277 0.672608 112.445 1.56964Z" fill="#FFCF2D"/>
<path d="M19.6866 152.271C20.8539 153.168 21.0544 154.719 20.1544 155.891C19.2543 157.062 17.6066 157.193 16.5366 156.37C15.3693 155.473 15.1688 153.922 16.0689 152.751C16.9689 151.58 18.5194 151.374 19.6866 152.271Z" fill="#FFCF2D"/>
<path d="M33.1119 134.802C34.2792 135.699 34.4797 137.25 33.5796 138.421C32.6796 139.592 31.1292 139.798 29.9619 138.901C28.7946 138.004 28.5941 136.452 29.4942 135.281C30.3192 134.208 31.9446 133.905 33.1119 134.802Z" fill="#FFCF2D"/>
<path d="M46.462 117.429C47.6293 118.327 47.8298 119.878 46.9297 121.049C46.0297 122.22 44.4793 122.426 43.312 121.529C42.1447 120.632 41.9442 119.08 42.8443 117.909C43.7443 116.738 45.2947 116.532 46.462 117.429Z" fill="#FFCF2D"/>
<path d="M59.8873 99.9595C61.0546 100.857 61.2551 102.408 60.355 103.579C59.455 104.75 57.9045 104.956 56.7373 104.059C55.57 103.162 55.3695 101.61 56.2695 100.439C57.1696 99.2681 58.72 99.0625 59.8873 99.9595Z" fill="#FFCF2D"/>
<path d="M73.3126 82.4898C74.4799 83.3868 74.6803 84.938 73.7803 86.1091C72.8803 87.2803 71.3298 87.4859 70.1626 86.5889C68.9953 85.6918 68.7948 84.1407 69.6948 82.9695C70.5199 81.8959 72.1453 81.5928 73.3126 82.4898Z" fill="#FFCF2D"/>
<path d="M86.7379 65.0198C87.9052 65.9169 88.1056 67.468 87.2056 68.6392C86.3056 69.8103 84.7551 70.0159 83.5879 69.1189C82.4206 68.2218 82.2201 66.6707 83.1201 65.4995C84.0201 64.3284 85.5706 64.1228 86.7379 65.0198Z" fill="#FFCF2D"/>
<path d="M100.088 47.6478C101.255 48.5448 101.456 50.0959 100.556 51.2671C99.6556 52.4383 98.1052 52.6439 96.9379 51.7468C95.7706 50.8498 95.5702 49.2986 96.4702 48.1275C97.3702 46.9563 98.9207 46.7507 100.088 47.6478Z" fill="#FFCF2D"/>
<path d="M113.513 30.1778C114.681 31.0748 114.881 32.626 113.981 33.7971C113.081 34.9683 111.53 35.1739 110.363 34.2768C109.196 33.3798 108.995 31.8287 109.895 30.6575C110.795 29.4863 112.346 29.2807 113.513 30.1778Z" fill="#FFCF2D"/>
<path d="M126.939 12.7081C128.106 13.6051 128.306 15.1562 127.406 16.3274C126.506 17.4986 124.956 17.7042 123.789 16.8071C122.621 15.9101 122.421 14.3589 123.321 13.1878C124.146 12.1142 125.771 11.811 126.939 12.7081Z" fill="#FFCF2D"/>
<path d="M62.9734 185.536C64.1407 186.433 64.3411 187.985 63.4411 189.156C62.5411 190.327 60.9906 190.533 59.8233 189.635C58.656 188.738 58.4556 187.187 59.3556 186.016C60.2556 184.845 61.9034 184.714 62.9734 185.536Z" fill="#FFCF2D"/>
<path d="M76.3987 168.066C77.566 168.963 77.7664 170.515 76.8664 171.686C75.9664 172.857 74.4159 173.063 73.2486 172.166C72.0813 171.268 71.8809 169.717 72.7809 168.546C73.6059 167.473 75.3287 167.244 76.3987 168.066Z" fill="#FFCF2D"/>
<path d="M89.7488 150.695C90.9161 151.592 91.1165 153.143 90.2165 154.314C89.3165 155.485 87.766 155.691 86.5987 154.794C85.4314 153.897 85.231 152.346 86.131 151.174C87.031 150.003 88.6788 149.872 89.7488 150.695Z" fill="#FFCF2D"/>
<path d="M103.174 133.225C104.341 134.122 104.542 135.673 103.642 136.844C102.742 138.015 101.191 138.221 100.024 137.324C98.8567 136.427 98.6563 134.876 99.5563 133.704C100.456 132.533 102.104 132.402 103.174 133.225Z" fill="#FFCF2D"/>
<path d="M116.599 115.755C117.767 116.652 117.967 118.203 117.067 119.374C116.167 120.545 114.617 120.751 113.449 119.854C112.282 118.957 112.082 117.406 112.982 116.234C113.807 115.161 115.529 114.932 116.599 115.755Z" fill="#FFCF2D"/>
<path d="M130.025 98.285C131.192 99.182 131.392 100.733 130.492 101.904C129.592 103.075 128.042 103.281 126.875 102.384C125.707 101.487 125.507 99.9358 126.407 98.7647C127.307 97.5935 128.955 97.4627 130.025 98.285Z" fill="#FFCF2D"/>
<path d="M143.375 80.9129C144.542 81.8099 144.742 83.3611 143.842 84.5322C142.942 85.7034 141.392 85.909 140.225 85.012C139.057 84.1149 138.857 82.5638 139.757 81.3926C140.657 80.2214 142.305 80.0906 143.375 80.9129Z" fill="#FFCF2D"/>
<path d="M156.8 63.4429C157.967 64.3399 158.168 65.8911 157.268 67.0623C156.368 68.2334 154.817 68.439 153.65 67.542C152.483 66.6449 152.282 65.0938 153.182 63.9226C154.082 62.7515 155.73 62.6206 156.8 63.4429Z" fill="#FFCF2D"/>
<path d="M170.225 45.9729C171.393 46.87 171.593 48.4211 170.693 49.5923C169.793 50.7634 168.243 50.969 167.075 50.072C165.908 49.175 165.708 47.6238 166.608 46.4527C167.433 45.3791 169.155 45.1507 170.225 45.9729Z" fill="#FFCF2D"/>
<path d="M77.467 196.675C78.6343 197.572 78.8348 199.123 77.9347 200.294C77.0347 201.465 75.4843 201.671 74.317 200.774C73.1497 199.877 72.9492 198.325 73.8493 197.154C74.7493 195.983 76.2997 195.778 77.467 196.675Z" fill="#FFCF2D"/>
<path d="M90.8923 179.205C92.0596 180.102 92.2601 181.653 91.36 182.824C90.46 183.995 88.9095 184.201 87.7423 183.304C86.575 182.407 86.3745 180.856 87.2746 179.684C88.0996 178.611 89.725 178.308 90.8923 179.205Z" fill="#FFCF2D"/>
<path d="M104.242 161.833C105.41 162.73 105.61 164.281 104.71 165.452C103.81 166.623 102.26 166.829 101.092 165.932C99.9251 165.035 99.7246 163.483 100.625 162.312C101.525 161.141 103.075 160.936 104.242 161.833Z" fill="#FFCF2D"/>
<path d="M118.135 147.982C119.005 146.85 118.796 145.23 117.668 144.363C116.54 143.496 114.92 143.711 114.05 144.843C113.18 145.974 113.389 147.595 114.518 148.462C115.646 149.329 117.266 149.114 118.135 147.982Z" fill="#FFCF2D"/>
<path d="M131.093 126.893C132.26 127.79 132.461 129.341 131.561 130.512C130.661 131.683 129.11 131.889 127.943 130.992C126.776 130.095 126.575 128.544 127.475 127.373C128.3 126.299 129.926 125.996 131.093 126.893Z" fill="#FFCF2D"/>
<path d="M144.518 109.423C145.686 110.32 145.886 111.871 144.986 113.042C144.086 114.213 142.536 114.419 141.368 113.522C140.201 112.625 140.001 111.074 140.901 109.903C141.801 108.731 143.351 108.526 144.518 109.423Z" fill="#FFCF2D"/>
<path d="M157.868 92.0511C159.036 92.9481 159.236 94.4992 158.336 95.6704C157.436 96.8416 155.886 97.0472 154.718 96.1501C153.551 95.2531 153.351 93.7019 154.251 92.5308C155.151 91.3596 156.701 91.154 157.868 92.0511Z" fill="#FFCF2D"/>
<path d="M171.761 78.2004C172.631 77.0685 172.422 75.4481 171.294 74.5811C170.165 73.7141 168.546 73.9289 167.676 75.0608C166.806 76.1927 167.015 77.8132 168.144 78.6802C169.272 79.5471 170.891 79.3324 171.761 78.2004Z" fill="#FFCF2D"/>
<path d="M184.719 57.1111C185.886 58.0082 186.087 59.5593 185.187 60.7305C184.287 61.9016 182.736 62.1072 181.569 61.2102C180.402 60.3132 180.201 58.762 181.101 57.5908C181.926 56.5173 183.552 56.2141 184.719 57.1111Z" fill="#FFCF2D"/>
<path d="M91.9609 207.813C93.1282 208.71 93.3286 210.261 92.4286 211.432C91.5286 212.603 89.9781 212.809 88.8108 211.912C87.6435 211.015 87.4431 209.464 88.3431 208.293C89.2431 207.121 90.7936 206.916 91.9609 207.813Z" fill="#FFCF2D"/>
<path d="M105.386 190.343C106.553 191.24 106.754 192.791 105.854 193.962C104.954 195.133 103.403 195.339 102.236 194.442C101.069 193.545 100.868 191.994 101.768 190.823C102.593 189.749 104.219 189.446 105.386 190.343Z" fill="#FFCF2D"/>
<path d="M118.736 172.971C119.904 173.868 120.104 175.419 119.204 176.59C118.304 177.762 116.753 177.967 115.586 177.07C114.419 176.173 114.218 174.622 115.118 173.451C116.018 172.28 117.569 172.074 118.736 172.971Z" fill="#FFCF2D"/>
<path d="M132.162 155.501C133.329 156.398 133.529 157.949 132.629 159.12C131.729 160.292 130.179 160.497 129.012 159.6C127.844 158.703 127.644 157.152 128.544 155.981C129.444 154.81 130.994 154.604 132.162 155.501Z" fill="#FFCF2D"/>
<path d="M145.587 138.031C146.754 138.928 146.955 140.479 146.055 141.65C145.155 142.822 143.604 143.027 142.437 142.13C141.27 141.233 141.069 139.682 141.969 138.511C142.794 137.437 144.42 137.134 145.587 138.031Z" fill="#FFCF2D"/>
<path d="M159.012 120.561C160.179 121.458 160.38 123.01 159.48 124.181C158.58 125.352 157.029 125.557 155.862 124.66C154.695 123.763 154.494 122.212 155.394 121.041C156.294 119.87 157.845 119.664 159.012 120.561Z" fill="#FFCF2D"/>
<path d="M172.362 103.189C173.529 104.086 173.73 105.637 172.83 106.809C171.93 107.98 170.379 108.185 169.212 107.288C168.045 106.391 167.844 104.84 168.744 103.669C169.644 102.498 171.195 102.292 172.362 103.189Z" fill="#FFCF2D"/>
<path d="M185.788 85.7193C186.955 86.6163 187.155 88.1675 186.255 89.3386C185.355 90.5098 183.805 90.7154 182.637 89.8184C181.47 88.9213 181.27 87.3702 182.17 86.199C183.07 85.0278 184.62 84.8222 185.788 85.7193Z" fill="#FFCF2D"/>
<path d="M199.213 68.2493C200.38 69.1464 200.581 70.6975 199.681 71.8687C198.781 73.0398 197.23 73.2454 196.063 72.3484C194.895 71.4513 194.695 69.9002 195.595 68.729C196.42 67.6555 198.046 67.3523 199.213 68.2493Z" fill="#FFCF2D"/>
<path d="M106.357 218.876C107.525 219.773 107.725 221.324 106.825 222.496C105.925 223.667 104.375 223.872 103.207 222.975C102.04 222.078 101.84 220.527 102.74 219.356C103.64 218.185 105.287 218.054 106.357 218.876Z" fill="#FFCF2D"/>
<path d="M119.783 201.406C120.95 202.303 121.15 203.854 120.25 205.026C119.35 206.197 117.8 206.402 116.633 205.505C115.465 204.608 115.265 203.057 116.165 201.886C116.99 200.812 118.713 200.584 119.783 201.406Z" fill="#FFCF2D"/>
<path d="M133.133 184.034C134.3 184.931 134.5 186.482 133.6 187.654C132.7 188.825 131.15 189.03 129.983 188.133C128.815 187.236 128.615 185.685 129.515 184.514C130.415 183.343 132.063 183.212 133.133 184.034Z" fill="#FFCF2D"/>
<path d="M146.558 166.564C147.725 167.462 147.926 169.013 147.026 170.184C146.126 171.355 144.575 171.561 143.408 170.664C142.241 169.767 142.04 168.215 142.94 167.044C143.84 165.873 145.488 165.742 146.558 166.564Z" fill="#FFCF2D"/>
<path d="M159.983 149.095C161.151 149.992 161.351 151.543 160.451 152.714C159.551 153.885 158 154.091 156.833 153.194C155.666 152.297 155.465 150.745 156.365 149.574C157.191 148.501 158.913 148.272 159.983 149.095Z" fill="#FFCF2D"/>
<path d="M173.409 131.625C174.576 132.522 174.776 134.073 173.876 135.244C172.976 136.415 171.426 136.621 170.259 135.724C169.091 134.827 168.891 133.275 169.791 132.104C170.691 130.933 172.339 130.802 173.409 131.625Z" fill="#FFCF2D"/>
<path d="M186.759 114.253C187.926 115.15 188.126 116.701 187.226 117.872C186.326 119.043 184.776 119.249 183.609 118.352C182.441 117.455 182.241 115.904 183.141 114.732C184.041 113.561 185.689 113.43 186.759 114.253Z" fill="#FFCF2D"/>
<path d="M200.184 96.7828C201.351 97.6798 201.552 99.231 200.652 100.402C199.752 101.573 198.201 101.779 197.034 100.882C195.867 99.9848 195.666 98.4336 196.566 97.2625C197.466 96.0913 199.114 95.9605 200.184 96.7828Z" fill="#FFCF2D"/>
<path d="M213.609 79.3128C214.777 80.2098 214.977 81.761 214.077 82.9321C213.177 84.1033 211.626 84.3089 210.459 83.4119C209.292 82.5148 209.091 80.9637 209.991 79.7925C210.816 78.7189 212.539 78.4905 213.609 79.3128Z" fill="#FFCF2D"/>
</g>
<defs>
<clipPath id="clip0_1_1277">
<rect width="181.184" height="132.739" fill="white" transform="translate(0 143.662) rotate(-52.4584)"/>
</clipPath>
</defs>
</svg>
