<svg width="22" height="22" viewBox="0 0 22 22" fill="none" xmlns="http://www.w3.org/2000/svg">
<path d="M15.5 19.75C16.0523 19.75 16.5 20.1977 16.5 20.75C16.5 21.3023 16.0523 21.75 15.5 21.75H5.25C2.48857 21.75 0.249998 19.5114 0.249998 16.75V5.25C0.249998 2.48857 2.48857 0.25 5.25 0.25H15.5C16.0523 0.25 16.5 0.697714 16.5 1.25C16.5 1.80228 16.0523 2.25 15.5 2.25L5.25 2.25C3.59315 2.25 2.25 3.59314 2.25 5.25V16.75C2.25 18.4069 3.59314 19.75 5.25 19.75H15.5Z" fill="#1E212C"/>
<path d="M4.75 11C4.75 11.2652 4.85536 11.5196 5.04289 11.7071L9.54289 16.2071C9.93342 16.5976 10.5666 16.5976 10.9571 16.2071C11.3476 15.8166 11.3476 15.1834 10.9571 14.7929L8.16421 12L20.75 12C21.3023 12 21.75 11.5523 21.75 11C21.75 10.4477 21.3023 10 20.75 10L8.16421 10L10.9571 7.20711C11.3476 6.81658 11.3476 6.18342 10.9571 5.79289C10.5666 5.40237 9.93342 5.40237 9.54289 5.79289L5.04289 10.2929C4.85536 10.4804 4.75 10.7348 4.75 11Z" fill="#1E212C"/>
</svg>
